<svg xmlns="http://www.w3.org/2000/svg" width="1024" height="1024" viewBox="0 0 1024 1024">
<g>
<path d="M 722.39 835.08 C719.07,833.64 716.00,829.04 716.00,825.50 C716.00,819.15 720.64,815.85 731.50,814.47 C743.42,812.96 748.12,810.01 752.90,801.04 L 756.17 794.90 L 740.01 754.70 C731.12,732.59 722.19,711.12 720.17,707.00 C716.48,699.47 715.17,698.26 708.50,696.32 C706.03,695.61 705.50,694.92 705.50,692.48 L 705.50 689.50 L 733.75 689.23 L 762.00 688.97 L 762.00 692.39 C762.00,695.73 761.88,695.83 757.08,696.49 C754.15,696.89 751.44,697.96 750.39,699.12 C747.99,701.78 748.76,704.93 758.96,734.00 C763.49,746.92 767.68,758.96 768.27,760.75 C768.86,762.54 769.66,764.00 770.06,764.00 C771.08,764.00 791.47,717.63 793.48,710.72 C795.32,704.37 794.82,699.51 792.17,698.09 C791.25,697.60 788.36,696.88 785.75,696.49 C781.16,695.80 781.00,695.66 781.00,692.39 L 781.00 689.00 L 803.50 689.00 L 826.00 689.00 L 826.00 692.39 C826.00,695.85 824.74,697.00 820.97,697.00 C819.94,697.00 817.44,698.69 815.41,700.75 C811.53,704.70 804.38,718.88 772.40,785.94 C754.17,824.17 751.64,828.08 741.92,833.04 C737.09,835.51 726.03,836.66 722.39,835.08 ZM 292.00 785.75 C290.15,781.74 259.29,707.90 249.06,683.00 C240.28,661.61 240.98,658.55 241.26,717.00 C241.49,766.24 241.59,768.68 243.50,772.50 C245.87,777.25 249.49,779.25 257.00,779.97 L 262.50 780.50 L 262.50 784.00 L 262.50 787.50 L 233.69 787.77 L 204.88 788.03 L 205.19 784.27 L 205.50 780.50 L 211.35 779.87 C218.23,779.13 221.73,776.89 224.50,771.44 C226.42,767.65 226.50,765.52 226.50,716.00 C226.50,665.32 226.47,664.43 224.34,659.82 C221.90,654.56 218.88,652.55 211.74,651.48 C207.16,650.80 207.00,650.66 207.00,647.39 L 207.00 644.00 L 235.31 644.00 L 263.63 644.00 L 285.06 697.61 C296.85,727.10 306.94,751.21 307.47,751.20 C308.49,751.18 309.30,749.23 329.52,698.00 C336.57,680.12 344.22,660.78 346.53,655.00 L 350.71 644.50 L 378.42 644.23 L 406.13 643.97 L 405.81 647.23 C405.51,650.35 405.24,650.55 399.74,651.64 C393.01,652.97 391.61,653.95 388.68,659.43 C386.52,663.46 386.50,664.02 386.50,715.00 C386.50,762.22 386.65,766.89 388.30,771.17 C390.56,777.03 393.82,779.19 401.48,779.92 L 407.50 780.50 L 407.50 784.00 L 407.50 787.50 L 372.50 787.50 L 337.50 787.50 L 337.50 784.00 L 337.50 780.50 L 343.00 779.91 C350.44,779.10 354.79,776.68 356.83,772.18 C358.31,768.93 358.53,762.55 358.81,717.00 C359.01,683.95 358.78,665.86 358.16,666.50 C357.38,667.30 329.38,735.84 311.48,780.75 L 307.79 790.00 L 300.88 790.00 L 293.97 790.00 L 292.00 785.75 ZM 460.00 789.31 C454.02,788.31 444.68,784.59 439.31,781.07 C424.26,771.19 416.00,755.85 416.00,737.76 C416.00,709.60 439.94,687.64 470.50,687.77 C495.86,687.87 517.54,703.55 523.55,726.13 C532.17,758.52 505.36,790.42 470.00,789.85 C465.88,789.78 461.38,789.54 460.00,789.31 ZM 475.50 777.90 C484.96,775.51 491.72,766.17 494.50,751.64 C496.41,741.66 496.39,734.85 494.43,725.21 C490.56,706.23 479.46,696.21 465.62,699.18 C459.03,700.59 452.14,707.32 449.17,715.27 C444.23,728.48 444.20,748.43 449.09,761.52 C451.77,768.67 457.96,775.54 463.50,777.50 C468.43,779.24 469.95,779.29 475.50,777.90 ZM 565.81 788.59 C563.23,787.85 559.07,786.09 556.57,784.70 L 552.03 782.16 L 549.94 785.08 C548.45,787.18 547.03,788.00 544.91,788.00 L 541.95 788.00 L 542.23 771.25 L 542.50 754.50 L 546.29 754.50 C550.09,754.50 550.09,754.50 552.51,761.42 C556.77,773.61 564.24,780.00 574.24,780.00 C583.44,780.00 589.00,775.86 589.00,769.03 C588.99,761.98 583.77,756.71 566.65,746.42 C545.99,734.01 539.23,721.14 545.12,705.41 C548.92,695.26 556.55,689.17 568.26,686.95 C574.59,685.75 583.59,687.21 590.17,690.50 C594.76,692.80 594.87,692.80 596.57,690.92 C597.53,689.86 599.37,689.00 600.65,689.00 L 603.00 689.00 L 603.00 703.00 L 603.00 717.00 L 599.53 717.00 C596.30,717.00 595.87,716.61 593.45,711.48 C588.62,701.28 583.49,697.00 576.10,697.00 C569.36,697.00 566.64,698.96 564.60,705.31 C563.83,707.72 566.47,713.82 569.80,717.35 C571.29,718.91 576.78,722.70 582.00,725.78 C605.06,739.34 612.06,747.56 612.23,761.32 C612.38,773.03 606.68,781.51 595.10,786.81 C588.40,789.88 573.43,790.79 565.81,788.59 ZM 652.81 788.59 C650.23,787.85 646.07,786.09 643.57,784.70 L 639.03 782.16 L 636.94 785.08 C635.45,787.18 634.03,788.00 631.91,788.00 L 628.95 788.00 L 629.23 771.25 L 629.50 754.50 L 633.12 754.20 C636.74,753.90 636.75,753.90 639.00,760.29 C641.74,768.04 646.87,775.36 651.10,777.55 C652.82,778.44 656.58,779.41 659.47,779.71 C669.30,780.72 676.00,776.42 676.00,769.12 C675.99,761.97 670.84,756.74 653.65,746.42 C634.17,734.72 627.42,723.25 631.17,708.19 C635.86,689.32 657.96,680.91 677.39,690.61 C682.27,693.05 682.28,693.05 683.69,691.03 C684.47,689.91 686.21,689.00 687.56,689.00 L 690.00 689.00 L 690.00 703.00 L 690.00 717.00 L 686.62 717.00 C683.51,717.00 683.02,716.55 680.53,711.47 C675.38,700.94 670.48,697.00 662.57,697.00 C659.00,697.00 657.40,697.59 655.07,699.75 C649.72,704.71 650.83,711.87 657.93,718.22 C660.56,720.58 667.10,724.97 672.46,728.00 C691.10,738.52 699.19,748.58 699.31,761.39 C699.42,773.05 691.37,784.21 680.17,787.93 C674.58,789.79 658.33,790.19 652.81,788.59 ZM 496.50 533.37 C418.24,526.96 364.91,481.57 349.26,408.06 C346.80,396.50 346.58,393.64 346.57,372.00 C346.55,346.89 347.38,339.69 352.61,320.00 C356.38,305.75 358.61,299.69 364.92,286.50 C385.81,242.82 416.78,214.06 457.65,200.38 C487.33,190.45 520.57,190.02 555.09,199.13 C562.67,201.13 562.68,201.13 568.59,199.14 C588.18,192.54 610.19,194.02 628.31,203.16 C633.40,205.72 634.08,206.42 633.81,208.69 C633.35,212.52 630.78,213.76 626.78,212.09 C613.25,206.42 606.28,204.68 595.46,204.22 C576.92,203.45 563.51,208.39 551.43,220.44 C527.99,243.82 528.86,279.61 553.52,306.78 C567.54,322.22 586.33,331.20 604.53,331.15 C620.39,331.11 633.32,325.73 644.52,314.52 C656.48,302.55 662.00,289.12 662.00,272.00 C662.00,260.57 660.13,253.06 654.43,241.59 C650.13,232.93 649.35,229.87 650.61,226.58 C653.99,217.76 669.74,248.52 670.58,265.60 C670.77,269.50 672.05,278.73 673.41,286.10 C677.15,306.37 678.35,323.60 677.70,347.50 C676.45,393.16 665.18,432.73 644.25,465.00 C621.01,500.83 588.48,522.77 546.41,531.00 C535.65,533.10 508.81,534.38 496.50,533.37 ZM 538.03 512.98 C603.99,505.00 650.62,470.16 653.69,426.54 C654.44,416.02 653.32,405.62 651.16,402.95 C650.10,401.64 647.82,400.66 644.99,400.30 C642.52,399.98 639.32,399.13 637.88,398.41 C636.41,397.66 631.32,391.30 626.20,383.79 C613.54,365.25 610.63,362.00 606.62,362.00 C599.12,362.00 599.28,365.83 607.42,381.30 C615.45,396.54 617.39,403.00 616.78,412.42 C616.22,421.08 613.97,426.33 606.90,435.50 C597.20,448.08 592.98,451.66 586.35,452.97 C573.92,455.43 570.94,457.58 565.53,468.00 C559.09,480.41 552.51,485.87 542.97,486.74 C534.43,487.51 527.50,485.50 522.92,480.92 C517.52,475.52 516.73,471.57 516.61,449.29 C516.52,433.13 516.25,429.82 514.90,428.48 C514.03,427.60 510.03,426.04 506.02,425.00 C494.22,421.97 489.69,416.42 488.40,403.38 C488.02,399.60 487.34,395.50 486.89,394.28 C485.43,390.31 479.76,388.80 466.54,388.86 C448.05,388.93 443.55,386.03 440.98,372.37 C439.17,362.82 440.32,342.92 443.10,335.41 C449.29,318.68 463.19,307.66 481.36,305.09 C484.78,304.61 494.30,304.44 502.53,304.71 C518.69,305.25 523.00,304.49 523.00,301.08 C523.00,300.00 521.91,297.85 520.58,296.31 C518.20,293.55 517.99,293.50 508.42,293.78 C496.64,294.11 492.99,293.03 489.05,288.07 C485.02,282.97 480.65,281.93 464.50,282.25 C446.81,282.59 443.43,280.73 440.85,269.21 C439.93,265.09 439.90,262.21 440.75,257.28 C441.97,250.14 444.17,246.99 450.00,244.02 C454.57,241.70 456.52,241.35 475.47,239.44 C484.26,238.56 492.28,237.38 493.31,236.84 C496.96,234.88 497.86,230.35 497.16,217.50 L 496.50 205.50 L 488.00 205.80 C472.60,206.35 458.64,210.08 443.51,217.71 C408.31,235.44 378.94,267.78 365.37,303.73 C356.58,327.02 356.81,352.43 365.98,371.12 C370.18,379.67 370.78,380.37 376.00,382.69 C386.20,387.22 391.03,394.04 395.08,409.64 C399.82,427.92 403.66,431.75 418.50,433.04 C431.49,434.17 437.21,437.53 441.45,446.49 C443.74,451.33 444.16,453.93 444.97,468.24 C446.35,492.47 447.43,494.92 459.42,500.82 C468.13,505.11 473.06,506.92 482.94,509.48 C498.79,513.59 521.19,515.01 538.03,512.98 ZM 435.54 483.31 C436.99,481.87 437.17,479.89 436.83,469.53 C436.48,459.19 436.07,456.72 433.96,452.49 C430.87,446.27 427.67,444.40 414.93,441.39 C402.95,438.56 398.51,436.41 393.76,431.16 C388.65,425.50 388.03,424.01 385.91,412.27 C384.85,406.40 383.11,400.30 381.96,398.43 C379.66,394.71 374.32,391.00 371.25,391.00 C363.23,391.00 367.45,405.95 382.14,429.56 C399.42,457.33 424.34,484.64 432.68,484.96 C433.33,484.98 434.62,484.24 435.54,483.31 ZM 546.33 476.64 C550.64,474.84 554.05,470.64 559.11,460.90 C563.87,451.76 566.80,449.17 575.93,446.07 C585.09,442.95 585.24,442.84 592.32,433.74 C602.02,421.28 603.46,418.02 603.48,408.50 C603.50,400.79 603.29,400.05 597.57,388.00 C590.63,373.36 589.60,367.65 592.79,361.42 C596.08,355.01 599.22,352.73 605.51,352.21 C613.86,351.52 617.17,354.30 628.51,371.54 C637.69,385.49 642.58,390.99 645.83,391.01 C652.89,391.03 658.92,395.45 660.90,402.06 C662.52,407.46 663.50,407.61 665.32,402.73 C672.15,384.38 672.19,352.56 665.44,324.00 C663.56,316.07 662.03,312.00 660.92,312.00 C660.46,312.00 658.83,313.69 657.29,315.75 C655.76,317.81 651.12,322.88 646.98,327.02 C638.10,335.90 628.04,341.58 614.10,345.58 C605.62,348.01 603.77,348.19 591.19,347.77 C580.04,347.40 576.06,346.84 569.72,344.75 C558.53,341.07 549.52,335.30 538.18,324.57 C526.65,313.66 529.07,314.40 501.90,313.52 C482.65,312.90 476.67,313.65 468.66,317.69 C453.84,325.15 444.68,345.05 447.83,362.93 C449.80,374.12 452.64,376.34 467.14,378.02 C481.46,379.68 486.08,380.82 489.73,383.61 C494.69,387.39 497.70,392.63 499.50,400.62 C501.39,409.02 503.51,411.43 510.34,412.96 C521.06,415.37 525.62,419.60 528.09,429.44 C529.08,433.37 529.08,436.73 528.08,445.98 C526.38,461.79 526.51,469.61 528.52,472.68 C531.67,477.49 539.91,479.32 546.33,476.64 ZM 517.07 283.25 C517.10,282.84 517.27,276.88 517.45,270.00 C517.71,259.26 518.20,256.15 520.87,247.89 C524.66,236.20 531.10,225.97 540.32,217.01 C546.31,211.20 548.40,208.02 546.25,207.99 C545.84,207.99 541.07,207.09 535.65,205.99 C518.70,202.56 508.91,203.64 505.83,209.26 C505.16,210.49 504.30,217.02 503.93,223.76 C503.09,239.19 501.10,243.79 493.44,248.12 C489.21,250.51 486.22,251.22 475.19,252.44 C456.52,254.51 452.09,257.00 451.24,265.87 C450.84,269.98 451.13,271.13 453.01,273.01 C455.21,275.21 455.58,275.24 470.47,274.55 C487.82,273.74 490.30,274.31 496.01,280.36 L 499.44 284.00 L 508.22 284.00 C513.05,284.00 517.03,283.66 517.07,283.25 ZM 584.49 313.20 C568.70,307.74 554.95,293.84 549.16,277.50 C546.65,270.39 544.90,255.37 546.01,250.44 C547.05,245.86 548.39,244.37 552.83,242.84 C558.31,240.95 580.06,241.39 587.52,243.54 C598.83,246.81 603.00,246.63 610.68,242.59 C614.43,240.61 619.75,237.20 622.50,235.01 C630.12,228.95 633.54,227.37 635.53,229.02 C640.54,233.19 645.16,249.40 645.21,263.00 C645.26,277.32 642.12,287.50 634.35,298.17 C624.79,311.30 600.31,318.67 584.49,313.20 ZM 614.62 301.54 C621.63,298.01 627.00,293.80 627.00,291.82 C627.00,290.00 615.09,291.55 612.10,293.76 C609.08,295.99 605.00,301.68 605.00,303.65 C605.00,305.76 607.18,305.28 614.62,301.54 ZM 602.82 289.00 C610.46,277.49 621.48,255.86 622.62,250.14 C623.26,246.94 623.17,246.81 620.90,247.49 C619.58,247.89 615.73,249.73 612.35,251.60 C597.50,259.78 589.22,269.53 588.27,279.93 C587.42,289.38 591.02,301.70 594.27,300.45 C594.97,300.18 598.82,295.03 602.82,289.00 ZM 574.80 286.33 C576.06,285.54 577.59,283.79 578.21,282.45 C579.81,278.93 578.08,275.83 572.31,271.91 C569.67,270.11 565.30,266.68 562.60,264.28 C559.91,261.89 557.21,260.11 556.60,260.32 C554.49,261.07 555.82,271.03 558.92,277.65 C562.86,286.06 566.07,289.25 569.73,288.41 C571.25,288.05 573.53,287.12 574.80,286.33 ZM 630.31 279.64 C635.29,277.56 636.22,274.64 635.83,262.30 C635.43,249.95 633.92,247.21 631.27,254.05 C630.32,256.50 627.40,262.92 624.77,268.31 C622.15,273.71 620.00,279.06 620.00,280.19 C620.00,281.98 620.46,282.19 623.31,281.73 C625.13,281.43 628.28,280.49 630.31,279.64 ZM 587.61 259.01 C589.83,255.66 590.05,254.76 588.96,253.46 C588.24,252.59 586.53,252.03 585.09,252.20 C582.72,252.47 582.47,252.94 582.20,257.75 C581.82,264.36 583.77,264.81 587.61,259.01 ZM 572.81 254.75 C572.51,250.60 572.41,250.49 568.62,250.18 C562.61,249.69 561.81,251.50 566.24,255.56 C571.45,260.36 573.20,260.14 572.81,254.75 ZM 355.00 246.00 C351.19,242.19 352.86,239.61 359.68,238.74 C364.72,238.10 368.00,240.01 368.00,243.58 C368.00,247.98 358.71,249.71 355.00,246.00 ZM 367.23 231.77 C365.98,231.17 364.05,229.19 362.93,227.38 C361.31,224.76 361.11,223.66 361.98,222.04 C363.58,219.05 366.75,219.55 370.60,223.40 C374.13,226.93 374.86,229.74 372.80,231.80 C371.37,233.23 370.25,233.23 367.23,231.77 ZM 380.56 224.78 C378.45,221.76 378.60,216.72 380.88,213.90 C382.54,211.85 383.08,211.71 385.35,212.75 C388.60,214.23 389.47,217.53 388.04,222.87 C387.12,226.26 386.49,227.00 384.52,227.00 C383.17,227.00 381.43,226.03 380.56,224.78 ZM 638.83 219.53 C637.97,217.64 638.00,216.70 638.98,215.53 C642.18,211.66 648.36,215.59 646.00,220.00 C644.45,222.90 640.24,222.62 638.83,219.53 Z" fill="rgba(0,0,0,1)"/>
</g>
</svg>